<?xml version="1.0" standalone="no"?>
<!DOCTYPE svg PUBLIC "-//W3C//DTD SVG 20010904//EN"
 "http://www.w3.org/TR/2001/REC-SVG-20010904/DTD/svg10.dtd">
<svg version="1.0" xmlns="http://www.w3.org/2000/svg"
 width="128.000000pt" height="128.000000pt" viewBox="0 0 1024.000000 1024.000000"
 preserveAspectRatio="xMidYMid meet">

<g transform="translate(0.000000,1024.000000) scale(0.100000,-0.100000)"
fill="#18D50F" stroke="none">
<path d="M2012 6878 c-120 -19 -113 -13 -893 -795 -637 -639 -729 -735 -750
-783 -21 -49 -24 -70 -24 -185 0 -115 3 -136 24 -185 21 -48 113 -144 750
-783 784 -787 772 -776 897 -795 260 -41 483 183 442 442 -19 120 -18 119
-639 741 l-579 580 576 575 c621 620 623 623 642 746 42 262 -182 484 -446
442z"/>
<path d="M8112 6880 c-206 -31 -353 -235 -320 -444 19 -123 21 -126 642 -746
l576 -575 -579 -580 c-621 -622 -620 -621 -639 -741 -41 -259 182 -483 442
-442 125 19 113 8 897 795 637 639 729 735 750 783 21 49 24 70 24 185 0 115
-3 136 -24 185 -21 48 -113 144 -750 783 -764 766 -773 775 -877 792 -74 12
-89 13 -142 5z"/>
<path d="M5052 6870 c-61 -13 -137 -57 -180 -104 -20 -23 -80 -115 -131 -206
-52 -91 -208 -361 -346 -600 -139 -239 -363 -628 -500 -865 -472 -817 -659
-1140 -696 -1202 -56 -91 -72 -150 -67 -236 9 -131 83 -237 206 -295 l57 -27
1760 0 1760 0 57 27 c123 58 197 164 206 295 5 86 -11 145 -67 236 -37 62
-224 385 -696 1202 -137 237 -361 626 -500 865 -138 239 -294 509 -346 600
-109 191 -148 239 -234 281 -51 25 -77 31 -151 34 -49 2 -108 0 -132 -5z m260
-1250 c167 -289 576 -998 770 -1335 l144 -250 -532 -3 c-293 -1 -775 -1 -1071
0 l-539 3 144 250 c79 138 255 441 389 675 561 972 536 930 548 912 6 -9 72
-123 147 -252z"/>
</g>
</svg>
