<?xml version="1.0" standalone="no"?>
<!DOCTYPE svg PUBLIC "-//W3C//DTD SVG 20010904//EN"
 "http://www.w3.org/TR/2001/REC-SVG-20010904/DTD/svg10.dtd">
<svg version="1.0" xmlns="http://www.w3.org/2000/svg"
 width="1024.000000pt" height="1024.000000pt" viewBox="0 0 1024.000000 1024.000000"
 preserveAspectRatio="xMidYMid meet">

<g transform="translate(0.000000,1024.000000) scale(0.100000,-0.100000)"
fill="#000000" stroke="none">
<path d="M4325 8190 c-405 -32 -747 -244 -956 -592 -27 -45 -49 -87 -49 -95 0
-10 44 -13 228 -13 l227 0 65 66 c107 108 226 176 374 214 77 20 108 20 1231
20 1122 0 1154 -1 1231 -20 145 -37 262 -103 371 -211 105 -104 169 -213 219
-374 18 -58 19 -132 19 -1925 0 -1793 -1 -1867 -19 -1925 -31 -99 -66 -176
-111 -245 -41 -61 -136 -163 -197 -210 l-28 -21 0 -220 c0 -156 3 -219 11
-219 21 0 152 71 227 123 274 189 457 484 507 816 22 143 22 3659 0 3802 -59
394 -302 727 -661 908 -95 47 -178 75 -304 103 -93 21 -119 21 -1195 23 -605
2 -1140 -1 -1190 -5z"/>
<path d="M3385 7394 c-347 -44 -643 -214 -846 -486 -85 -114 -162 -276 -202
-423 l-32 -120 0 -1900 0 -1900 32 -120 c131 -484 511 -826 1003 -900 141 -22
2269 -22 2410 0 135 20 255 57 368 114 358 180 597 510 657 911 22 142 22
3648 0 3790 -49 329 -215 606 -479 802 -112 84 -275 161 -421 201 l-120 32
-1170 1 c-643 1 -1183 0 -1200 -2z m2400 -418 c292 -88 500 -297 582 -586 17
-62 18 -150 18 -1925 0 -1775 -1 -1863 -18 -1925 -83 -291 -296 -504 -587
-587 -61 -17 -129 -18 -1235 -18 -1106 0 -1174 1 -1235 18 -291 83 -504 296
-587 587 -17 62 -18 150 -18 1925 0 1775 1 1863 18 1925 91 321 355 558 672
603 17 2 548 4 1180 3 1077 -2 1154 -3 1210 -20z"/>
</g>
</svg>
